<mxfile host="www.draw.io" modified="2020-01-13T03:15:06.273Z" agent="Mozilla/5.0 (Windows NT 10.0; WOW64) AppleWebKit/537.36 (KHTML, like Gecko) Chrome/65.0.3325.181 Safari/537.36" etag="DSrMSnn2YTuVV1QYuIT6" version="12.5.1" type="github">
  <diagram id="yzT1Js8JzzJvs4QTMrLD" name="Page-1">
    <mxGraphModel dx="1038" dy="584" grid="1" gridSize="10" guides="1" tooltips="1" connect="1" arrows="1" fold="1" page="1" pageScale="1" pageWidth="827" pageHeight="1169" math="0" shadow="0">
      <root>
        <mxCell id="0"/>
        <mxCell id="1" parent="0"/>
        <mxCell id="o4GKz8uqaLClTENhlION-2" style="edgeStyle=orthogonalEdgeStyle;rounded=0;orthogonalLoop=1;jettySize=auto;html=1;" edge="1" parent="1" source="o4GKz8uqaLClTENhlION-1">
          <mxGeometry relative="1" as="geometry">
            <mxPoint x="413" y="140" as="targetPoint"/>
          </mxGeometry>
        </mxCell>
        <mxCell id="o4GKz8uqaLClTENhlION-1" value="c升级b" style="rounded=1;whiteSpace=wrap;html=1;" vertex="1" parent="1">
          <mxGeometry x="353" y="40" width="120" height="60" as="geometry"/>
        </mxCell>
        <mxCell id="o4GKz8uqaLClTENhlION-5" style="edgeStyle=orthogonalEdgeStyle;rounded=0;orthogonalLoop=1;jettySize=auto;html=1;" edge="1" parent="1" source="o4GKz8uqaLClTENhlION-4">
          <mxGeometry relative="1" as="geometry">
            <mxPoint x="560" y="180" as="targetPoint"/>
          </mxGeometry>
        </mxCell>
        <mxCell id="o4GKz8uqaLClTENhlION-8" style="edgeStyle=orthogonalEdgeStyle;rounded=0;orthogonalLoop=1;jettySize=auto;html=1;" edge="1" parent="1" source="o4GKz8uqaLClTENhlION-4">
          <mxGeometry relative="1" as="geometry">
            <mxPoint x="413" y="270" as="targetPoint"/>
          </mxGeometry>
        </mxCell>
        <mxCell id="o4GKz8uqaLClTENhlION-4" value="校验参数合法性" style="rhombus;whiteSpace=wrap;html=1;" vertex="1" parent="1">
          <mxGeometry x="339.5" y="140" width="147" height="80" as="geometry"/>
        </mxCell>
        <mxCell id="o4GKz8uqaLClTENhlION-6" value="false" style="text;html=1;strokeColor=none;fillColor=none;align=center;verticalAlign=middle;whiteSpace=wrap;rounded=0;" vertex="1" parent="1">
          <mxGeometry x="487" y="160" width="40" height="20" as="geometry"/>
        </mxCell>
        <mxCell id="o4GKz8uqaLClTENhlION-7" value="返回不处理" style="rounded=1;whiteSpace=wrap;html=1;" vertex="1" parent="1">
          <mxGeometry x="560" y="150" width="120" height="60" as="geometry"/>
        </mxCell>
        <mxCell id="o4GKz8uqaLClTENhlION-11" style="edgeStyle=orthogonalEdgeStyle;rounded=0;orthogonalLoop=1;jettySize=auto;html=1;" edge="1" parent="1" source="o4GKz8uqaLClTENhlION-10">
          <mxGeometry relative="1" as="geometry">
            <mxPoint x="560" y="310" as="targetPoint"/>
          </mxGeometry>
        </mxCell>
        <mxCell id="o4GKz8uqaLClTENhlION-15" style="edgeStyle=orthogonalEdgeStyle;rounded=0;orthogonalLoop=1;jettySize=auto;html=1;" edge="1" parent="1" source="o4GKz8uqaLClTENhlION-10">
          <mxGeometry relative="1" as="geometry">
            <mxPoint x="411.875" y="400" as="targetPoint"/>
          </mxGeometry>
        </mxCell>
        <mxCell id="o4GKz8uqaLClTENhlION-10" value="查询上级是否存在绑定关系" style="rhombus;whiteSpace=wrap;html=1;" vertex="1" parent="1">
          <mxGeometry x="339.5" y="270" width="144.75" height="80" as="geometry"/>
        </mxCell>
        <mxCell id="o4GKz8uqaLClTENhlION-12" value="返回不处理" style="rounded=1;whiteSpace=wrap;html=1;" vertex="1" parent="1">
          <mxGeometry x="560" y="280" width="120" height="60" as="geometry"/>
        </mxCell>
        <mxCell id="o4GKz8uqaLClTENhlION-13" value="false" style="text;html=1;strokeColor=none;fillColor=none;align=center;verticalAlign=middle;whiteSpace=wrap;rounded=0;" vertex="1" parent="1">
          <mxGeometry x="487" y="290" width="40" height="20" as="geometry"/>
        </mxCell>
        <mxCell id="o4GKz8uqaLClTENhlION-19" style="edgeStyle=orthogonalEdgeStyle;rounded=0;orthogonalLoop=1;jettySize=auto;html=1;" edge="1" parent="1" source="o4GKz8uqaLClTENhlION-16">
          <mxGeometry relative="1" as="geometry">
            <mxPoint x="560" y="440" as="targetPoint"/>
          </mxGeometry>
        </mxCell>
        <mxCell id="o4GKz8uqaLClTENhlION-28" style="edgeStyle=orthogonalEdgeStyle;rounded=0;orthogonalLoop=1;jettySize=auto;html=1;" edge="1" parent="1" source="o4GKz8uqaLClTENhlION-16">
          <mxGeometry relative="1" as="geometry">
            <mxPoint x="413" y="520" as="targetPoint"/>
          </mxGeometry>
        </mxCell>
        <mxCell id="o4GKz8uqaLClTENhlION-16" value="查询缓存校验分布式锁" style="rhombus;whiteSpace=wrap;html=1;" vertex="1" parent="1">
          <mxGeometry x="344" y="400" width="138" height="80" as="geometry"/>
        </mxCell>
        <mxCell id="o4GKz8uqaLClTENhlION-21" value="false" style="text;html=1;strokeColor=none;fillColor=none;align=center;verticalAlign=middle;whiteSpace=wrap;rounded=0;" vertex="1" parent="1">
          <mxGeometry x="484.25" y="420" width="40" height="20" as="geometry"/>
        </mxCell>
        <mxCell id="o4GKz8uqaLClTENhlION-27" value="校验失败，返回不处理" style="rounded=1;whiteSpace=wrap;html=1;" vertex="1" parent="1">
          <mxGeometry x="560" y="410" width="120" height="60" as="geometry"/>
        </mxCell>
        <mxCell id="o4GKz8uqaLClTENhlION-33" style="edgeStyle=orthogonalEdgeStyle;rounded=0;orthogonalLoop=1;jettySize=auto;html=1;" edge="1" parent="1" source="o4GKz8uqaLClTENhlION-29">
          <mxGeometry relative="1" as="geometry">
            <mxPoint x="560" y="660" as="targetPoint"/>
          </mxGeometry>
        </mxCell>
        <mxCell id="o4GKz8uqaLClTENhlION-34" style="edgeStyle=orthogonalEdgeStyle;rounded=0;orthogonalLoop=1;jettySize=auto;html=1;" edge="1" parent="1" source="o4GKz8uqaLClTENhlION-29">
          <mxGeometry relative="1" as="geometry">
            <mxPoint x="270" y="660" as="targetPoint"/>
            <Array as="points">
              <mxPoint x="270" y="560"/>
              <mxPoint x="270" y="660"/>
            </Array>
          </mxGeometry>
        </mxCell>
        <mxCell id="o4GKz8uqaLClTENhlION-29" value="查询是当前登录用户是否存在绑定关系" style="rhombus;whiteSpace=wrap;html=1;" vertex="1" parent="1">
          <mxGeometry x="348" y="520" width="130.5" height="80" as="geometry"/>
        </mxCell>
        <mxCell id="o4GKz8uqaLClTENhlION-35" value="true" style="text;html=1;strokeColor=none;fillColor=none;align=center;verticalAlign=middle;whiteSpace=wrap;rounded=0;" vertex="1" parent="1">
          <mxGeometry x="484" y="540" width="40" height="20" as="geometry"/>
        </mxCell>
        <mxCell id="o4GKz8uqaLClTENhlION-36" value="false" style="text;html=1;strokeColor=none;fillColor=none;align=center;verticalAlign=middle;whiteSpace=wrap;rounded=0;" vertex="1" parent="1">
          <mxGeometry x="290" y="540" width="40" height="20" as="geometry"/>
        </mxCell>
        <mxCell id="o4GKz8uqaLClTENhlION-37" value="建立绑定关系入库" style="rounded=1;whiteSpace=wrap;html=1;" vertex="1" parent="1">
          <mxGeometry x="500" y="660" width="120" height="60" as="geometry"/>
        </mxCell>
        <mxCell id="o4GKz8uqaLClTENhlION-41" style="edgeStyle=orthogonalEdgeStyle;rounded=0;orthogonalLoop=1;jettySize=auto;html=1;" edge="1" parent="1" source="o4GKz8uqaLClTENhlION-38">
          <mxGeometry relative="1" as="geometry">
            <mxPoint x="270" y="770" as="targetPoint"/>
          </mxGeometry>
        </mxCell>
        <mxCell id="o4GKz8uqaLClTENhlION-38" value="修改链路关系，建立新绑定关系" style="rounded=1;whiteSpace=wrap;html=1;" vertex="1" parent="1">
          <mxGeometry x="210" y="660" width="120" height="60" as="geometry"/>
        </mxCell>
        <mxCell id="o4GKz8uqaLClTENhlION-42" value="带走直属下级" style="rounded=1;whiteSpace=wrap;html=1;" vertex="1" parent="1">
          <mxGeometry x="210" y="770" width="120" height="60" as="geometry"/>
        </mxCell>
      </root>
    </mxGraphModel>
  </diagram>
</mxfile>
